<svg width="64" height="64" viewBox="0 0 64 64" fill="none" xmlns="http://www.w3.org/2000/svg">
<path d="M0.703979 0.704102H63.296V63.2966H0.703979V0.704102Z" fill="#636363"/>
<path d="M58.1735 48.3679C57.715 45.5124 55.853 43.1139 50.3375 40.8774C48.4215 39.9969 46.2855 39.3664 45.649 37.9144C45.423 37.0694 45.393 36.5934 45.536 36.0819C45.9465 34.4219 47.928 33.9044 49.4985 34.3804C50.51 34.7194 51.4675 35.4989 52.045 36.7424C54.746 34.9934 54.7405 35.0049 56.6265 33.8029C55.936 32.7324 55.5675 32.2384 55.1155 31.7804C53.491 29.9659 51.2775 29.0314 47.7375 29.1029L45.8935 29.3414C44.1265 29.7879 42.4425 30.7154 41.455 31.9589C38.492 35.3209 39.337 41.2049 42.9425 43.6264C46.4945 46.2924 51.7125 46.8989 52.379 49.3919C53.0275 52.4439 50.136 53.4319 47.262 53.0809C45.144 52.6404 43.966 51.5639 42.6925 49.6064C40.3485 50.9629 40.3485 50.9629 37.9385 52.3489C38.51 53.5984 39.1105 54.1639 40.0685 55.2464C44.6025 59.8454 55.9485 59.6194 57.9835 52.6584C58.066 52.4194 58.614 50.8254 58.1735 48.3679ZM34.731 29.4714H28.8765L28.8525 44.6074C28.8525 47.8264 29.019 50.7774 28.4955 51.6819C27.639 53.4609 25.4195 53.2404 24.408 52.8954C23.3785 52.3894 22.855 51.6699 22.2485 50.6529C22.082 50.3609 21.957 50.1349 21.915 50.1174L17.155 53.0324C17.9465 54.6569 19.1125 56.0669 20.606 56.9829C22.837 58.3219 25.8355 58.7324 28.9715 58.0124C31.0125 57.4179 32.7735 56.1864 33.6955 54.3119C35.0285 51.8544 34.7425 48.8799 34.7305 45.5899C34.7605 40.2224 34.731 34.8559 34.731 29.4714Z" fill="#1E101E"/>
</svg>
