<svg width="64" height="64" viewBox="0 0 64 64" fill="none" xmlns="http://www.w3.org/2000/svg">
<path d="M31.9999 37.6998C35.148 37.6998 37.6999 35.1478 37.6999 31.9998C37.6999 28.8518 35.148 26.2998 31.9999 26.2998C28.8519 26.2998 26.2999 28.8518 26.2999 31.9998C26.2999 35.1478 28.8519 37.6998 31.9999 37.6998Z" fill="#636363"/>
<path d="M53.65 22.5998C52.55 22.1998 51.4 21.7998 50.2 21.4498C50.5 20.2498 50.75 19.0498 50.95 17.8998C52 11.2998 50.85 6.6498 47.65 4.8498C46.7 4.2998 45.65 4.0498 44.45 4.0498C40.95 4.0498 36.5 6.6498 32 10.9998C27.5 6.6498 23.0499 4.0498 19.5499 4.0498C18.3499 4.0498 17.3 4.2998 16.35 4.8498C13.15 6.6998 12 11.3498 13.05 17.8998C13.25 19.0498 13.5 20.2498 13.8 21.4498C12.6 21.7998 11.45 22.1498 10.35 22.5998C4.09995 24.9998 0.699951 28.2998 0.699951 31.9998C0.699951 35.6998 4.14995 38.9998 10.35 41.3998C11.45 41.7998 12.6 42.1998 13.8 42.5498C13.5 43.7498 13.25 44.9498 13.05 46.0998C12 52.6998 13.15 57.3498 16.35 59.1498C17.3 59.6998 18.3499 59.9498 19.5499 59.9498C23.0999 59.9498 27.5499 57.3498 32 52.9998C36.5 57.3498 40.95 59.9498 44.45 59.9498C45.65 59.9498 46.7 59.6998 47.65 59.1498C50.85 57.2998 52 52.6498 50.95 46.0998C50.75 44.9498 50.5 43.7498 50.2 42.5498C51.4 42.1998 52.55 41.8498 53.65 41.3998C59.9 38.9998 63.2999 35.6998 63.2999 31.9998C63.2999 28.2998 59.9 24.9998 53.65 22.5998ZM46.25 7.3498C48.2999 8.5498 49 12.2498 48.15 17.4998C48 18.5498 47.75 19.6498 47.45 20.7998C44.85 20.1998 42.1 19.7998 39.2 19.5498C37.5 17.1498 35.75 14.9998 34 13.0498C37.7 9.3998 41.45 6.8998 44.5 6.8998C45.15 6.8998 45.75 7.0498 46.25 7.3498ZM40.65 36.9998C39.75 38.5998 38.6999 40.1998 37.5999 41.7998C35.75 41.9498 33.9 41.9998 32 41.9998C30.0499 41.9998 28.1999 41.9498 26.4 41.7998C25.2999 40.1998 24.2999 38.5998 23.4 36.9998C22.4499 35.3498 21.5499 33.6498 20.75 31.9998C21.5499 30.3498 22.4499 28.6498 23.4 26.9998C24.2999 25.3998 25.35 23.7998 26.45 22.1998C28.3 22.0498 30.15 21.9998 32.0499 21.9998C34 21.9998 35.85 22.0498 37.65 22.1998C38.75 23.7998 39.75 25.3998 40.65 26.9998C41.6 28.6498 42.5 30.3498 43.2999 31.9998C42.45 33.6498 41.6 35.2998 40.65 36.9998ZM44.7999 35.3498C45.5499 37.0998 46.15 38.7998 46.7 40.4998C45 40.8998 43.2 41.1998 41.2999 41.4498C41.8999 40.4998 42.5499 39.4998 43.0999 38.4498C43.6999 37.3998 44.25 36.3498 44.7999 35.3498ZM32 48.8998C30.7999 47.5998 29.65 46.1998 28.5499 44.7498C29.6999 44.7998 30.85 44.8498 32 44.8498C33.15 44.8498 34.2999 44.7998 35.45 44.7498C34.35 46.1998 33.2 47.5998 32 48.8998ZM22.7 41.3998C20.8 41.1498 19 40.8498 17.2999 40.4498C17.8499 38.7998 18.45 37.0498 19.2 35.2998C19.75 36.2998 20.2999 37.3498 20.9 38.3498C21.5 39.4498 22.1 40.3998 22.7 41.3998ZM19.2 28.6498C18.45 26.8998 17.8499 25.1998 17.2999 23.4998C19 23.0998 20.8 22.7998 22.7 22.5498C22.1 23.4998 21.4499 24.4998 20.9 25.5498C20.2999 26.5998 19.75 27.6498 19.2 28.6498ZM32 15.0998C33.2 16.3998 34.35 17.7998 35.45 19.2498C34.2999 19.1998 33.15 19.1498 32 19.1498C30.85 19.1498 29.6999 19.1998 28.5499 19.2498C29.65 17.7998 30.7999 16.3998 32 15.0998ZM43.0999 25.5998L41.2999 22.5998C43.2 22.8498 45 23.1498 46.7 23.5498C46.15 25.1998 45.5499 26.9498 44.7999 28.6998C44.25 27.6498 43.6999 26.5998 43.0999 25.5998ZM15.85 17.4998C15 12.2498 15.7 8.5498 17.75 7.3498C18.25 7.0498 18.85 6.8998 19.5 6.8998C22.5 6.8998 26.25 9.3498 30 13.0498C28.25 14.9498 26.5 17.1498 24.7999 19.5498C21.9 19.7998 19.15 20.2498 16.55 20.7998C16.25 19.6498 16.05 18.5498 15.85 17.4998ZM3.49995 31.9998C3.49995 29.6498 6.34995 27.1498 11.35 25.2998C12.35 24.8998 13.45 24.5498 14.55 24.2498C15.35 26.7498 16.3499 29.3998 17.5499 32.0498C16.3499 34.6998 15.3 37.2998 14.55 39.7998C7.64995 37.7998 3.49995 34.7998 3.49995 31.9998ZM17.75 56.6498C15.7 55.4498 15 51.7498 15.85 46.4998C16 45.4498 16.25 44.3498 16.55 43.1998C19.15 43.7998 21.9 44.1998 24.7999 44.4498C26.5 46.8498 28.25 48.9998 30 50.9498C26.2999 54.5998 22.5499 57.0998 19.5 57.0998C18.85 57.0998 18.25 56.9498 17.75 56.6498ZM48.15 46.4998C49 51.7498 48.2999 55.4498 46.25 56.6498C45.75 56.9498 45.15 57.0998 44.5 57.0998C41.5 57.0998 37.75 54.6498 34 50.9498C35.75 49.0498 37.5 46.8498 39.2 44.4498C42.1 44.1998 44.85 43.7498 47.45 43.1998C47.75 44.3498 47.95 45.4498 48.15 46.4998ZM52.65 38.6998C51.65 39.0998 50.5499 39.4498 49.45 39.7498C48.65 37.2498 47.65 34.5998 46.45 31.9498C47.65 29.2998 48.7 26.6998 49.45 24.1998C56.35 26.1998 60.5 29.1998 60.5 31.9998C60.5 34.3498 57.6 36.8498 52.65 38.6998Z" fill="#636363"/>
</svg>
