<svg width="64" height="64" viewBox="0 0 64 64" fill="none" xmlns="http://www.w3.org/2000/svg">
<path d="M32.002 12.8008C23.4685 12.8008 18.137 17.0658 16.002 25.5993C19.201 21.3338 22.9355 19.7343 27.201 20.8008C29.6365 21.4078 31.377 23.1738 33.3045 25.1308C36.4415 28.3143 40.0725 31.9998 48.002 31.9998C56.535 31.9998 61.867 27.7343 64.002 19.1988C60.8025 23.4668 57.0685 25.0663 52.8025 23.9998C50.3675 23.3923 48.629 21.6268 46.699 19.6698C43.564 16.4863 39.934 12.8008 32.002 12.8008V12.8008ZM16.002 31.9998C7.46895 31.9998 2.13695 36.2653 0.00195312 44.8008C3.20095 40.5328 6.93495 38.9333 11.201 39.9998C13.6365 40.6073 15.377 42.3728 17.3045 44.3298C20.4415 47.5133 24.0725 51.1988 32.002 51.1988C40.535 51.1988 45.867 46.9338 48.002 38.4003C44.8025 42.6658 41.0685 44.2653 36.8025 43.1988C34.3675 42.5918 32.629 40.8258 30.699 38.8688C27.564 35.6853 23.934 31.9998 16.002 31.9998Z" fill="#636363"/>
</svg>
