<svg width="64" height="64" viewBox="0 0 64 64" fill="none" xmlns="http://www.w3.org/2000/svg">
<path d="M1 31.9551V63.2051H63.5V0.705078H1V31.9551ZM51.365 29.4551C52.8619 29.8025 54.2225 30.5854 55.275 31.7051C55.8544 32.3083 56.3581 32.9799 56.775 33.7051C56.775 33.7851 54.075 35.6101 52.43 36.6301C52.37 36.6701 52.13 36.4101 51.865 36.0151C51.5647 35.4969 51.138 35.0633 50.6248 34.7546C50.1115 34.446 49.5285 34.2724 48.93 34.2501C47.035 34.1201 45.815 35.1151 45.825 36.7501C45.8093 37.1572 45.9025 37.561 46.095 37.9201C46.51 38.7851 47.285 39.3001 49.715 40.3501C54.19 42.2751 56.105 43.5451 57.295 45.3501C58.625 47.3501 58.92 50.5801 58.02 52.9701C57.02 55.5701 54.57 57.3351 51.105 57.9201C49.5224 58.1013 47.9234 58.0845 46.345 57.8701C43.9361 57.4793 41.7139 56.3323 40 54.5951C39.425 53.9601 38.305 52.3051 38.375 52.1851C38.5575 52.0496 38.7497 51.9276 38.95 51.8201L41.25 50.5001L43.045 49.4601L43.42 50.0151C44.0529 50.9204 44.8583 51.6918 45.79 52.2851C47.79 53.3351 50.52 53.1901 51.87 51.9751C52.3233 51.5299 52.606 50.9398 52.6691 50.3076C52.7321 49.6753 52.5714 49.041 52.215 48.5151C51.715 47.8201 50.715 47.2351 47.92 46.0151C44.695 44.6251 43.305 43.7651 42.035 42.3951C41.2422 41.491 40.6568 40.4244 40.32 39.2701C40.0688 37.9513 40.0316 36.6007 40.21 35.2701C40.875 32.1551 43.21 29.9801 46.62 29.3351C48.1992 29.1397 49.7989 29.1835 51.365 29.4651V29.4551ZM36.695 32.0751V34.6351H28.58V57.7501H22.825V34.6301H14.69V32.1301C14.6682 31.2694 14.6915 30.4083 14.76 29.5501C14.79 29.5101 19.76 29.4901 25.76 29.5001H36.665L36.695 32.0751Z" fill="#636363"/>
</svg>
